# xmcd
#
# Track frame offsets:
# 150
# 11730
# 24560
# 34005
# 48400
# 62047
# 74052
# 87067
# 97747
# 108142
# 120305
# 134395
#
# Disc length: 1998 seconds
#
#
# Revision: 0
# Processed by: cddbd v1.4PL0 Copyright (c) Steve Scherf et al.
# Submitted via: FreeRIP 2.30 
#
DISCID=9407cc0c
DTITLE=Johnny Paycheck - Johnny Paycheck
DYEAR=2001
DGENRE=Country
TTITLE0=Take This Job and Shove It
TTITLE1=She's All I Got
TTITLE2=Mr. Lovemaker
TTITLE3=Someone To Give My Love To
TTITLE4=Slide Off Your Satin Sheets
TTITLE5=For A Minute There
TTITLE6=Song And Dance Man
TTITLE7=Jukebox Charlie
TTITLE8=Motel Time Again
TTITLE9=Something About You I Love
TTITLE10=SOmebody Loves Me
TTITLE11=I'm The Only Hell (Mama Ever Raised)
EXTD=
EXTT0=
EXTT1=
EXTT2=
EXTT3=
EXTT4=
EXTT5=
EXTT6=
EXTT7=
EXTT8=
EXTT9=
EXTT10=
EXTT11=
PLAYORDER=
